<?xml version="1.0" standalone="no"?>
<!DOCTYPE svg PUBLIC "-//W3C//DTD SVG 20010904//EN"
 "http://www.w3.org/TR/2001/REC-SVG-20010904/DTD/svg10.dtd">
<svg version="1.0" xmlns="http://www.w3.org/2000/svg"
 width="1080.000000pt" height="1080.000000pt" viewBox="0 0 1080.000000 1080.000000"
 preserveAspectRatio="xMidYMid meet">

<g transform="translate(0.000000,1080.000000) scale(0.100000,-0.100000)"
fill="#000000" stroke="none">
<path d="M1279 6042 c-122 -128 -237 -302 -299 -452 -36 -88 -37 -104 -6 -172
45 -101 43 -100 123 -14 133 142 327 459 382 623 34 101 33 103 -48 103 l-69
0 -83 -88z"/>
<path d="M1531 6052 c-22 -37 -67 -128 -100 -202 -76 -174 -163 -354 -244
-506 l-64 -121 31 -20 c44 -30 93 -53 109 -53 25 0 164 157 222 251 122 197
191 426 183 609 l-3 74 -47 18 -47 17 -40 -67z"/>
<path d="M2260 5595 l0 -485 135 0 135 0 2 163 3 162 213 3 212 2 0 105 0 105
-212 2 -213 3 -3 103 -3 102 246 0 245 0 0 110 0 110 -380 0 -380 0 0 -485z"/>
<path d="M3280 5767 c0 -331 5 -379 51 -468 49 -97 152 -173 267 -198 75 -16
217 -14 287 4 115 30 207 100 254 194 44 85 51 147 51 474 l0 307 -134 0 -135
0 -3 -317 c-3 -308 -4 -319 -26 -360 -12 -24 -33 -50 -47 -59 -65 -43 -176
-36 -228 14 -59 56 -61 69 -65 410 l-4 312 -134 0 -134 0 0 -313z"/>
<path d="M4795 6050 c-12 -23 -390 -873 -412 -928 -4 -10 25 -12 137 -10 l142
3 35 88 35 87 207 0 206 0 35 -90 35 -90 143 0 c133 0 144 1 137 18 -3 9 -99
227 -213 485 l-207 467 -132 0 -132 0 -16 -30z m206 -403 l57 -142 -115 -3
c-64 -1 -117 -1 -120 1 -2 3 22 70 54 150 32 80 60 143 63 141 2 -3 30 -69 61
-147z"/>
<path d="M5720 5596 l0 -486 140 0 140 0 0 125 0 125 73 0 74 0 84 -125 84
-124 149 -1 148 0 -15 23 c-8 12 -53 78 -101 147 l-86 125 22 18 c80 62 100
83 128 141 28 57 32 74 32 148 0 175 -81 284 -252 340 -58 19 -95 21 -342 26
l-278 4 0 -486z m524 244 c47 -24 71 -65 71 -119 0 -107 -51 -141 -210 -141
l-105 0 0 141 0 141 108 -4 c69 -2 117 -8 136 -18z"/>
<path d="M6887 6073 c-4 -3 -7 -222 -7 -485 l0 -478 140 0 140 0 0 485 0 485
-133 0 c-74 0 -137 -3 -140 -7z"/>
<path d="M7484 6065 c-4 -8 -4 -153 -1 -322 5 -318 10 -360 52 -443 49 -97
140 -166 255 -196 90 -23 273 -16 350 14 116 46 199 137 238 262 14 47 17 102
17 375 l0 320 -132 3 -131 3 -4 -308 c-3 -305 -3 -308 -28 -358 -40 -80 -116
-115 -203 -96 -54 13 -84 35 -109 84 -22 41 -23 52 -26 360 l-3 317 -135 0
c-110 0 -136 -3 -140 -15z"/>
<path d="M8720 5595 l0 -485 125 0 125 0 0 240 c0 132 3 240 8 240 4 0 60 -88
125 -195 l119 -195 61 0 62 1 120 201 120 202 6 -184 c4 -102 7 -213 8 -247
l1 -63 125 0 125 0 -2 483 -3 482 -112 3 -112 3 -167 -282 -167 -281 -21 34
c-12 19 -88 146 -171 281 l-150 247 -112 0 -113 0 0 -485z"/>
<path d="M1736 5968 c-8 -29 -31 -112 -50 -184 -64 -234 -139 -400 -268 -591
l-49 -73 68 0 c130 0 139 4 196 87 129 184 200 389 222 639 l6 71 -46 51 c-26
29 -51 52 -56 52 -4 0 -15 -24 -23 -52z"/>
<path d="M1892 5795 c-6 -22 -20 -78 -32 -125 -43 -169 -104 -321 -178 -442
-22 -38 -37 -68 -33 -68 4 0 35 17 67 38 165 107 258 315 225 507 -7 39 -18
84 -25 100 l-13 30 -11 -40z"/>
<path d="M2260 4880 c0 -7 1272 -10 3795 -10 2523 0 3795 3 3795 10 0 7 -1272
10 -3795 10 -2523 0 -3795 -3 -3795 -10z"/>
<path d="M5289 4690 c-90 -47 -91 -189 -3 -247 33 -21 127 -24 162 -5 19 11
22 21 22 72 0 47 -3 60 -15 60 -11 0 -15 -12 -15 -45 0 -51 -16 -65 -75 -65
-49 0 -105 53 -105 99 0 39 24 87 49 101 29 15 103 12 128 -5 18 -13 22 -13
33 0 10 12 6 18 -22 35 -42 25 -111 26 -159 0z"/>
<path d="M5590 4570 c0 -133 1 -140 20 -140 17 0 20 7 20 40 l0 40 44 0 c41 0
47 -4 73 -40 19 -26 36 -40 51 -40 23 0 23 0 -7 43 l-29 43 24 21 c61 54 33
151 -48 167 -17 3 -57 6 -89 6 l-59 0 0 -140z m170 80 c11 -11 20 -29 20 -40
0 -38 -35 -60 -95 -60 l-55 0 0 60 0 60 55 0 c42 0 60 -5 75 -20z"/>
<path d="M5969 4687 c-100 -66 -85 -210 26 -252 109 -42 213 33 203 147 -11
107 -138 166 -229 105z m147 -35 c55 -44 59 -109 10 -158 -46 -46 -101 -48
-148 -5 -28 25 -33 36 -33 76 0 40 5 51 33 76 38 34 103 40 138 11z"/>
<path d="M6302 4594 c3 -112 4 -117 31 -139 60 -52 157 -39 190 25 24 49 21
223 -5 228 -14 3 -17 -11 -20 -103 -3 -98 -5 -108 -27 -126 -32 -26 -77 -24
-106 6 -23 22 -25 31 -25 125 0 95 -1 100 -21 100 -20 0 -21 -4 -17 -116z"/>
<path d="M6660 4571 c0 -134 1 -141 20 -141 17 0 20 7 20 40 l0 40 51 0 c95 0
151 52 134 123 -13 52 -47 70 -140 75 l-85 5 0 -142z m163 87 c28 -22 32 -63
8 -87 -16 -16 -34 -21 -76 -21 l-55 0 0 60 0 60 53 0 c29 0 61 -6 70 -12z"/>
</g>
</svg>
